<?xml version="1.0" encoding="UTF-8"?>
<svg id="Capa_1" xmlns="http://www.w3.org/2000/svg" version="1.1" viewBox="0 0 237 33">
  <!-- Generator: Adobe Illustrator 29.3.1, SVG Export Plug-In . SVG Version: 2.1.0 Build 151)  -->
  <defs>
    <style>
      .st0 {
        fill: #262b39;
      }
    </style>
  </defs>
  <path class="st0" d="M22.2,32.1L0,3.2h12.4l10.2,14h.2l10.3-14h12.4l-22.2,28.9h-1.2ZM67,31.8c-11.6,0-19-3.3-19-8.4s2.6-5.9,8.5-6.9v-.4c-4.4-.6-6.8-3.2-6.8-6,0-4.2,5.4-7.4,17.2-7.4s17.2,3.2,17.2,7.4-2.4,5.4-6.8,6v.4c6,1,8.5,3.4,8.5,6.9,0,5.1-7.4,8.4-18.9,8.4ZM67,14.6c3.6,0,5.7-1,5.7-2.7s-2.1-2.7-5.7-2.7-5.8,1.1-5.8,2.7,2.1,2.7,5.8,2.7ZM67,24.8c4.3,0,6.8-1.2,6.8-3.1s-2.5-3.2-6.8-3.2-6.9,1.3-6.9,3.2,2.6,3.1,6.9,3.1ZM104.6,31.2V3.2h4.5v24.6h25.8v3.4h-30.4ZM153.7,31.7c-8.6,0-15-4.6-15-11.2s6.6-11.2,15.4-11.2,11.2,2.1,13.8,5.6h.3l2.3-5.1h1v21.4h-4.3v-5.3h-.4c-2.3,3.5-7.2,5.8-13.2,5.8ZM155.4,28.6c6.7,0,12-3.3,12-8.1s-5.3-8.1-12-8.1-12.3,3.2-12.3,8.1,5.6,8.1,12.3,8.1ZM194.9,31.7c-5.7,0-10.7-2.2-13.2-5.6h-.4v5h-4.3V0h4.3v14.9h.4c2.6-3.4,7.5-5.5,13.2-5.5,8.5,0,15.2,4.6,15.2,11.2s-6.7,11.2-15.2,11.2ZM193.4,28.7c6.8,0,12.4-3.3,12.4-8.2s-5.6-8.2-12.4-8.2-12.1,3.4-12.1,8.2,5.3,8.2,12.1,8.2ZM225.7,31.7c-5.3,0-9.8-1.2-13.2-2.9l.9-2.6c2.8,1.6,7.3,2.8,11.5,2.8s7.4-1.5,7.4-3.5-2.1-3.2-8-4c-7.2-1-10.2-3.1-10.2-6.4s4.3-5.8,11.3-5.8,7,.6,9.7,1.3v2.8c-2.4-.8-5.4-1.4-9-1.4s-7.6,1.2-7.6,3.3,1.7,3,7.9,3.9c7.5,1.1,10.4,3,10.4,6.4s-4.2,6-11.1,6Z"/>
</svg>