<svg xmlns="http://www.w3.org/2000/svg" width="1024" height="1024" viewBox="0 0 1024 1024">
  <!-- V8 Labs PWA icon/splash. Generado por branding/pwa/_generate.py.
       Fondo #262b39 (color.primario), "V8" Balgin Expanded Bold vectorizado a paths. -->
  <rect width="1024" height="1024" fill="#262b39"/>
  <g transform="translate(194.560,376.460) scale(0.372364,-0.372364) translate(-6.000,-714.000)" fill="#FFFFFF">
    <path d="M545 -14C861 -14 1026 96 1026 236C1026 355 907 443 573 450C455 457 418 472 418 498C418 526 488 546 586 546C722 546 858 521 952 480V658C877 686 729 714 550 714C226 714 66 616 66 480C66 352 232 262 519 255C646 248 681 232 681 205C681 178 618 157 527 157C359 157 182 197 76 273L6 99C133 33 352 -14 545 -14ZM1549 -14C1588 -14 1678 -8 1704 -3L1701 168C1687 163 1634 157 1600 157C1526 157 1483 171 1483 232V381H1711V535H1483V688H1428L1066 488V381H1211V192C1211 35 1342 -14 1549 -14Z"/>
  </g>
</svg>
