<svg xmlns="http://www.w3.org/2000/svg" width="1024" height="1024" viewBox="0 0 1024 1024">
  <!-- V8 Labs PWA icon/splash. Generado por branding/pwa/_generate.py.
       Fondo #262b39 (color.primario), "V8" Balgin Expanded Bold vectorizado a paths. -->
  <rect width="1024" height="1024" fill="#262b39"/>
  <g transform="translate(194.560,403.180) scale(0.295706,-0.295706) translate(-4.000,-714.000)" fill="#FFFFFF">
    <path d="M559 -22H590L1144 700H835L577 349H571L315 700H4ZM1678 -14C1967 -14 2151 69 2151 197C2151 283 2087 344 1938 369V379C2048 395 2108 459 2108 529C2108 633 1974 714 1678 714C1382 714 1247 633 1247 529C1247 459 1307 395 1417 379V369C1268 344 1204 283 1204 197C1204 69 1389 -14 1678 -14ZM1678 414C1587 414 1534 440 1534 481C1534 521 1587 548 1678 548C1768 548 1821 521 1821 481C1821 440 1768 414 1678 414ZM1678 161C1571 161 1506 192 1506 238C1506 284 1571 317 1678 317C1785 317 1848 284 1848 238C1848 192 1785 161 1678 161Z"/>
  </g>
</svg>
