<svg xmlns="http://www.w3.org/2000/svg" viewBox="0 0 107.6 19.9" role="img" aria-label="Boletin.app" fill="none">
  <g fill="currentColor"><path transform="matrix(0.01595 0 0 -0.01595 7.00 14.16)" d="M89 0H655C871 0 977 78 977 191C977 276 897 352 770 366V372C865 389 925 456 925 524C925 630 828 700 625 700H89ZM262 403V594H593C694 594 753 557 753 499C753 441 696 403 594 403ZM262 106V306H632C737 306 798 272 798 209C798 150 742 106 629 106Z"/><path transform="matrix(0.01100 0 0 -0.01100 23.46 14.16)" d="M454 -13C703 -13 870 104 870 267C870 431 704 547 454 547C205 547 37 431 37 267C37 103 204 -13 454 -13ZM454 83C301 83 186 160 186 267C186 375 300 450 453 450C607 450 720 375 720 267C720 160 607 83 454 83Z"/><path transform="matrix(0.01100 0 0 -0.01100 33.44 14.16)" d="M61 0H223V781H61Z"/><path transform="matrix(0.01100 0 0 -0.01100 36.56 14.16)" d="M464 -13C583 -13 704 10 781 57L754 145C681 100 575 79 475 79C314 79 202 132 188 223H834C837 232 840 261 840 271C840 431 668 547 442 547C211 547 37 433 37 268C37 118 188 -13 464 -13ZM186 313C209 399 318 454 444 454C572 454 680 396 698 313Z"/><path transform="matrix(0.01100 0 0 -0.01100 46.22 14.16)" d="M467 -13C534 -13 610 1 628 4L621 109C610 105 550 93 490 93C390 93 341 124 341 203V438H632V534H341V667H302L10 501V440H179V181C179 44 284 -13 467 -13Z"/><path transform="matrix(0.01100 0 0 -0.01100 53.39 14.16)" d="M142 626C199 626 236 659 236 699C236 741 199 774 142 774C85 774 46 741 46 699C46 659 85 626 142 626ZM60 0H222V534H60Z"/><path transform="matrix(0.01100 0 0 -0.01100 56.50 14.16)" d="M60 0H222V276C222 377 316 444 437 444C562 444 660 381 660 279V0H822V302C822 445 673 547 479 547C351 547 239 498 180 423H173L88 534H60Z"/><path transform="matrix(0.01100 0 0 -0.01100 66.20 14.16)" d="M142 -10C189 -10 230 20 230 61C230 101 189 131 142 131C94 131 52 101 52 61C52 20 94 -10 142 -10Z"/><path transform="matrix(0.01100 0 0 -0.01100 69.31 14.16)" d="M399 -11C548 -11 671 50 717 139H727V0H889V534H863L769 411H763C695 495 566 547 419 547C197 547 39 427 39 267C39 101 187 -11 399 -11ZM474 101C326 101 206 167 206 268C206 370 327 436 474 436C620 436 735 369 735 269C735 169 619 101 474 101Z"/><path transform="matrix(0.01100 0 0 -0.01100 79.75 14.16)" d="M60 -227H222V137H232C278 48 402 -13 550 -13C763 -13 911 100 911 266C911 426 753 547 529 547C382 547 255 495 186 411H180L86 534H60ZM476 99C330 99 215 167 215 267C215 367 329 436 475 436C623 436 742 369 742 267C742 166 624 99 476 99Z"/><path transform="matrix(0.01100 0 0 -0.01100 90.16 14.16)" d="M60 -227H222V137H232C278 48 402 -13 550 -13C763 -13 911 100 911 266C911 426 753 547 529 547C382 547 255 495 186 411H180L86 534H60ZM476 99C330 99 215 167 215 267C215 367 329 436 475 436C623 436 742 369 742 267C742 166 624 99 476 99Z"/></g>
</svg>
