<svg xmlns="http://www.w3.org/2000/svg" viewBox="0 0 87.7 19.9" fill="none">
  <rect x="0.5" y="0.5" width="86.7" height="18.9" rx="2.5" stroke="#8a8f9c" stroke-opacity="0.4"/>
  <g fill="#8a8f9c" fill-opacity="0.7"><path transform="matrix(0.01595 0 0 -0.01595 7.00 14.16)" d="M89 0H551C843 0 1035 146 1035 350C1035 554 842 700 551 700H89ZM262 120V581H557C724 581 859 485 859 350C859 216 724 120 557 120Z"/><path transform="matrix(0.01100 0 0 -0.01100 24.45 14.16)" d="M142 626C199 626 236 659 236 699C236 741 199 774 142 774C85 774 46 741 46 699C46 659 85 626 142 626ZM60 0H222V534H60Z"/><path transform="matrix(0.01100 0 0 -0.01100 27.56 14.16)" d="M399 -11C548 -11 671 50 717 139H727V0H889V534H863L769 411H763C695 495 566 547 419 547C197 547 39 427 39 267C39 101 187 -11 399 -11ZM474 101C326 101 206 167 206 268C206 370 327 436 474 436C620 436 735 369 735 269C735 169 619 101 474 101Z"/><path transform="matrix(0.01100 0 0 -0.01100 38.00 14.16)" d="M61 0H223V781H61Z"/><path transform="matrix(0.01100 0 0 -0.01100 41.13 14.16)" d="M454 -13C703 -13 870 104 870 267C870 431 704 547 454 547C205 547 37 431 37 267C37 103 204 -13 454 -13ZM454 83C301 83 186 160 186 267C186 375 300 450 453 450C607 450 720 375 720 267C720 160 607 83 454 83Z"/><path transform="matrix(0.01100 0 0 -0.01100 51.10 14.16)" d="M420 -242C697 -242 889 -130 889 37V534H861L766 413H759C691 495 564 547 419 547C195 547 37 431 37 270C37 108 186 -5 397 -5C547 -5 672 54 717 141H727V68C727 -59 581 -134 404 -134C304 -134 192 -121 102 -87L70 -194C159 -225 312 -242 420 -242ZM472 101C325 101 205 167 205 268C205 368 326 436 473 436C619 436 733 369 733 269C733 169 618 101 472 101Z"/><path transform="matrix(0.01100 0 0 -0.01100 61.37 14.16)" d="M372 -13C506 -13 606 40 651 117H659L660 0H821V534H659V260C659 159 564 91 444 91C315 91 220 151 220 257V534H59V219C59 79 185 -13 372 -13Z"/><path transform="matrix(0.01100 0 0 -0.01100 71.03 14.16)" d="M464 -13C583 -13 704 10 781 57L754 145C681 100 575 79 475 79C314 79 202 132 188 223H834C837 232 840 261 840 271C840 431 668 547 442 547C211 547 37 433 37 268C37 118 188 -13 464 -13ZM186 313C209 399 318 454 444 454C572 454 680 396 698 313Z"/></g>
</svg>
