<svg xmlns="http://www.w3.org/2000/svg" viewBox="0 0 111.9 19.9" fill="none">
  <rect x="0.5" y="0.5" width="110.9" height="18.9" rx="2.5" stroke="#8a8f9c" stroke-opacity="0.4"/>
  <g fill="#8a8f9c" fill-opacity="0.7"><path transform="matrix(0.01595 0 0 -0.01595 7.00 14.16)" d="M89 0H923V112H260V296H792V408H260V588H907V700H89Z"/><path transform="matrix(0.01100 0 0 -0.01100 22.73 14.16)" d="M492 -13C597 -13 707 9 778 43V153C705 115 606 88 508 88C336 88 202 161 202 269C202 373 327 446 486 446C580 446 665 420 718 383L760 473C692 521 572 547 470 547C220 547 37 438 37 267C37 91 232 -13 492 -13Z"/><path transform="matrix(0.01100 0 0 -0.01100 31.53 14.16)" d="M454 -13C703 -13 870 104 870 267C870 431 704 547 454 547C205 547 37 431 37 267C37 103 204 -13 454 -13ZM454 83C301 83 186 160 186 267C186 375 300 450 453 450C607 450 720 375 720 267C720 160 607 83 454 83Z"/><path transform="matrix(0.01100 0 0 -0.01100 41.50 14.16)" d="M60 0H222V313C226 393 306 444 405 444C514 444 580 392 580 310V0H742V308C742 391 820 444 920 444C1020 444 1095 391 1095 310V0H1256V324C1256 454 1134 547 959 547C841 547 748 503 702 435H692C650 504 560 547 435 547C319 547 224 503 176 436H169L88 534H60Z"/><path transform="matrix(0.01100 0 0 -0.01100 55.96 14.16)" d="M60 0H222V313C226 393 306 444 405 444C514 444 580 392 580 310V0H742V308C742 391 820 444 920 444C1020 444 1095 391 1095 310V0H1256V324C1256 454 1134 547 959 547C841 547 748 503 702 435H692C650 504 560 547 435 547C319 547 224 503 176 436H169L88 534H60Z"/><path transform="matrix(0.01100 0 0 -0.01100 70.41 14.16)" d="M464 -13C583 -13 704 10 781 57L754 145C681 100 575 79 475 79C314 79 202 132 188 223H834C837 232 840 261 840 271C840 431 668 547 442 547C211 547 37 433 37 268C37 118 188 -13 464 -13ZM186 313C209 399 318 454 444 454C572 454 680 396 698 313Z"/><path transform="matrix(0.01100 0 0 -0.01100 80.07 14.16)" d="M60 0H222V261C225 375 321 447 459 447C503 447 528 441 556 430L561 536C527 543 498 547 455 547C323 547 227 500 180 427H174L88 534H60Z"/><path transform="matrix(0.01100 0 0 -0.01100 86.45 14.16)" d="M492 -13C597 -13 707 9 778 43V153C705 115 606 88 508 88C336 88 202 161 202 269C202 373 327 446 486 446C580 446 665 420 718 383L760 473C692 521 572 547 470 547C220 547 37 438 37 267C37 91 232 -13 492 -13Z"/><path transform="matrix(0.01100 0 0 -0.01100 95.25 14.16)" d="M464 -13C583 -13 704 10 781 57L754 145C681 100 575 79 475 79C314 79 202 132 188 223H834C837 232 840 261 840 271C840 431 668 547 442 547C211 547 37 433 37 268C37 118 188 -13 464 -13ZM186 313C209 399 318 454 444 454C572 454 680 396 698 313Z"/></g>
</svg>
