<svg xmlns="http://www.w3.org/2000/svg" viewBox="0 0 79.7 19.9" fill="none">
  <rect x="0.5" y="0.5" width="78.7" height="18.9" rx="2.5" stroke="#8a8f9c" stroke-opacity="0.4"/>
  <g fill="#8a8f9c" fill-opacity="0.7"><path transform="matrix(0.01595 0 0 -0.01595 7.00 14.16)" d="M89 0H262V273H750V387H262V581H897V700H89Z"/><path transform="matrix(0.01100 0 0 -0.01100 21.93 14.16)" d="M399 -11C548 -11 671 50 717 139H727V0H889V534H863L769 411H763C695 495 566 547 419 547C197 547 39 427 39 267C39 101 187 -11 399 -11ZM474 101C326 101 206 167 206 268C206 370 327 436 474 436C620 436 735 369 735 269C735 169 619 101 474 101Z"/><path transform="matrix(0.01100 0 0 -0.01100 32.37 14.16)" d="M380 -13C570 -13 679 53 679 144C679 232 605 282 415 308C276 327 238 346 238 386C238 428 305 449 403 449C488 449 572 430 631 409V509C560 531 475 547 365 547C178 547 66 480 66 394C66 307 149 256 325 231C462 212 506 194 506 151C506 110 444 84 341 84C242 84 123 117 51 158L22 61C116 14 236 -13 380 -13Z"/><path transform="matrix(0.01100 0 0 -0.01100 40.21 14.16)" d="M60 0H222V276C222 375 318 442 437 442C560 442 660 378 660 277V0H822V315C822 451 691 547 509 547C374 547 274 494 232 415H222V781H60Z"/><path transform="matrix(0.01100 0 0 -0.01100 49.90 14.16)" d="M142 626C199 626 236 659 236 699C236 741 199 774 142 774C85 774 46 741 46 699C46 659 85 626 142 626ZM60 0H222V534H60Z"/><path transform="matrix(0.01100 0 0 -0.01100 53.02 14.16)" d="M454 -13C703 -13 870 104 870 267C870 431 704 547 454 547C205 547 37 431 37 267C37 103 204 -13 454 -13ZM454 83C301 83 186 160 186 267C186 375 300 450 453 450C607 450 720 375 720 267C720 160 607 83 454 83Z"/><path transform="matrix(0.01100 0 0 -0.01100 62.99 14.16)" d="M60 0H222V276C222 377 316 444 437 444C562 444 660 381 660 279V0H822V302C822 445 673 547 479 547C351 547 239 498 180 423H173L88 534H60Z"/></g>
</svg>
