<svg xmlns="http://www.w3.org/2000/svg" viewBox="0 0 59.6 19.9" fill="none">
  <rect x="0.5" y="0.5" width="58.6" height="18.9" rx="2.5" stroke="#8a8f9c" stroke-opacity="0.4"/>
  <g fill="#8a8f9c" fill-opacity="0.7"><path transform="matrix(0.01595 0 0 -0.01595 7.00 14.16)" d="M46 0H243L399 401H406L683 62H710L986 401H994L1150 0H1347L1066 717H1038L699 290H692L355 717H328Z"/><path transform="matrix(0.01100 0 0 -0.01100 29.22 14.16)" d="M142 626C199 626 236 659 236 699C236 741 199 774 142 774C85 774 46 741 46 699C46 659 85 626 142 626ZM60 0H222V534H60Z"/><path transform="matrix(0.01100 0 0 -0.01100 32.33 14.16)" d="M60 0H222V276C222 377 316 444 437 444C562 444 660 381 660 279V0H822V302C822 445 673 547 479 547C351 547 239 498 180 423H173L88 534H60Z"/><path transform="matrix(0.01100 0 0 -0.01100 42.02 14.16)" d="M409 -13C549 -13 669 42 731 127H743V0H904V781H743V407H731C669 492 548 547 408 547C199 547 38 428 38 267C38 107 200 -13 409 -13ZM473 95C321 95 201 166 201 267C201 368 322 439 474 439C625 439 740 367 740 267C740 168 624 95 473 95Z"/></g>
</svg>
