<svg xmlns="http://www.w3.org/2000/svg" viewBox="0 0 119.1 19.9" fill="none">
  <rect x="0.5" y="0.5" width="118.1" height="18.9" rx="2.5" stroke="#8a8f9c" stroke-opacity="0.4"/>
  <g fill="#8a8f9c" fill-opacity="0.7"><path transform="matrix(0.01595 0 0 -0.01595 7.00 14.16)" d="M980 -17H1006V700H835V256H826L115 717H89V0H260V445H269Z"/><path transform="matrix(0.01100 0 0 -0.01100 24.47 14.16)" d="M454 -13C703 -13 870 104 870 267C870 431 704 547 454 547C205 547 37 431 37 267C37 103 204 -13 454 -13ZM454 83C301 83 186 160 186 267C186 375 300 450 453 450C607 450 720 375 720 267C720 160 607 83 454 83Z"/><path transform="matrix(0.01100 0 0 -0.01100 34.44 14.16)" d="M467 -13C534 -13 610 1 628 4L621 109C610 105 550 93 490 93C390 93 341 124 341 203V438H632V534H341V667H302L10 501V440H179V181C179 44 284 -13 467 -13Z"/><path transform="matrix(0.01100 0 0 -0.01100 41.61 14.16)" d="M142 626C199 626 236 659 236 699C236 741 199 774 142 774C85 774 46 741 46 699C46 659 85 626 142 626ZM60 0H222V534H60Z"/><path transform="matrix(0.01100 0 0 -0.01100 44.73 14.16)" d="M183 -1H344V438H647V534H344V581C344 652 397 689 500 689C560 689 610 675 622 672L629 780C611 783 554 796 486 796C289 796 183 726 183 586V534H13V438H183Z"/><path transform="matrix(0.01100 0 0 -0.01100 51.97 14.16)" d="M142 626C199 626 236 659 236 699C236 741 199 774 142 774C85 774 46 741 46 699C46 659 85 626 142 626ZM60 0H222V534H60Z"/><path transform="matrix(0.01100 0 0 -0.01100 55.08 14.16)" d="M492 -13C597 -13 707 9 778 43V153C705 115 606 88 508 88C336 88 202 161 202 269C202 373 327 446 486 446C580 446 665 420 718 383L760 473C692 521 572 547 470 547C220 547 37 438 37 267C37 91 232 -13 492 -13Z"/><path transform="matrix(0.01100 0 0 -0.01100 63.88 14.16)" d="M399 -11C548 -11 671 50 717 139H727V0H889V534H863L769 411H763C695 495 566 547 419 547C197 547 39 427 39 267C39 101 187 -11 399 -11ZM474 101C326 101 206 167 206 268C206 370 327 436 474 436C620 436 735 369 735 269C735 169 619 101 474 101Z"/><path transform="matrix(0.01100 0 0 -0.01100 74.32 14.16)" d="M467 -13C534 -13 610 1 628 4L621 109C610 105 550 93 490 93C390 93 341 124 341 203V438H632V534H341V667H302L10 501V440H179V181C179 44 284 -13 467 -13Z"/><path transform="matrix(0.01100 0 0 -0.01100 81.49 14.16)" d="M142 626C199 626 236 659 236 699C236 741 199 774 142 774C85 774 46 741 46 699C46 659 85 626 142 626ZM60 0H222V534H60Z"/><path transform="matrix(0.01100 0 0 -0.01100 84.60 14.16)" d="M454 -13C703 -13 870 104 870 267C870 431 704 547 454 547C205 547 37 431 37 267C37 103 204 -13 454 -13ZM454 83C301 83 186 160 186 267C186 375 300 450 453 450C607 450 720 375 720 267C720 160 607 83 454 83Z"/><path transform="matrix(0.01100 0 0 -0.01100 94.58 14.16)" d="M60 0H222V276C222 377 316 444 437 444C562 444 660 381 660 279V0H822V302C822 445 673 547 479 547C351 547 239 498 180 423H173L88 534H60Z"/><path transform="matrix(0.01100 0 0 -0.01100 104.27 14.16)" d="M380 -13C570 -13 679 53 679 144C679 232 605 282 415 308C276 327 238 346 238 386C238 428 305 449 403 449C488 449 572 430 631 409V509C560 531 475 547 365 547C178 547 66 480 66 394C66 307 149 256 325 231C462 212 506 194 506 151C506 110 444 84 341 84C242 84 123 117 51 158L22 61C116 14 236 -13 380 -13Z"/></g>
</svg>
