<svg xmlns="http://www.w3.org/2000/svg" viewBox="0 0 87.6 19.9" fill="none">
  <rect x="0.5" y="0.5" width="86.6" height="18.9" rx="2.5" stroke="#8a8f9c" stroke-opacity="0.4"/>
  <g fill="#8a8f9c" fill-opacity="0.7"><path transform="matrix(0.01595 0 0 -0.01595 7.00 14.16)" d="M89 0H261V253L563 254L776 0H964L713 293C859 309 949 388 949 496C949 624 822 700 626 700H89ZM261 371V582H586C700 582 774 542 774 478C774 415 695 371 583 371Z"/><path transform="matrix(0.01100 0 0 -0.01100 23.17 14.16)" d="M464 -13C583 -13 704 10 781 57L754 145C681 100 575 79 475 79C314 79 202 132 188 223H834C837 232 840 261 840 271C840 431 668 547 442 547C211 547 37 433 37 268C37 118 188 -13 464 -13ZM186 313C209 399 318 454 444 454C572 454 680 396 698 313Z"/><path transform="matrix(0.01100 0 0 -0.01100 32.83 14.16)" d="M467 -13C534 -13 610 1 628 4L621 109C610 105 550 93 490 93C390 93 341 124 341 203V438H632V534H341V667H302L10 501V440H179V181C179 44 284 -13 467 -13Z"/><path transform="matrix(0.01100 0 0 -0.01100 40.00 14.16)" d="M399 -11C548 -11 671 50 717 139H727V0H889V534H863L769 411H763C695 495 566 547 419 547C197 547 39 427 39 267C39 101 187 -11 399 -11ZM474 101C326 101 206 167 206 268C206 370 327 436 474 436C620 436 735 369 735 269C735 169 619 101 474 101Z"/><path transform="matrix(0.01100 0 0 -0.01100 50.44 14.16)" d="M142 626C199 626 236 659 236 699C236 741 199 774 142 774C85 774 46 741 46 699C46 659 85 626 142 626ZM60 0H222V534H60Z"/><path transform="matrix(0.01100 0 0 -0.01100 53.56 14.16)" d="M61 0H223V781H61Z"/><path transform="matrix(0.01100 0 0 -0.01100 56.68 14.16)" d="M464 -13C583 -13 704 10 781 57L754 145C681 100 575 79 475 79C314 79 202 132 188 223H834C837 232 840 261 840 271C840 431 668 547 442 547C211 547 37 433 37 268C37 118 188 -13 464 -13ZM186 313C209 399 318 454 444 454C572 454 680 396 698 313Z"/><path transform="matrix(0.01100 0 0 -0.01100 66.34 14.16)" d="M60 0H222V261C225 375 321 447 459 447C503 447 528 441 556 430L561 536C527 543 498 547 455 547C323 547 227 500 180 427H174L88 534H60Z"/><path transform="matrix(0.01100 0 0 -0.01100 72.72 14.16)" d="M380 -13C570 -13 679 53 679 144C679 232 605 282 415 308C276 327 238 346 238 386C238 428 305 449 403 449C488 449 572 430 631 409V509C560 531 475 547 365 547C178 547 66 480 66 394C66 307 149 256 325 231C462 212 506 194 506 151C506 110 444 84 341 84C242 84 123 117 51 158L22 61C116 14 236 -13 380 -13Z"/></g>
</svg>
