<svg xmlns="http://www.w3.org/2000/svg" viewBox="0 0 70.1 19.9" fill="none">
  <rect x="0.5" y="0.5" width="69.1" height="18.9" rx="2.5" stroke="#8a8f9c" stroke-opacity="0.4"/>
  <g fill="#8a8f9c" fill-opacity="0.7"><path transform="matrix(0.01595 0 0 -0.01595 7.00 14.16)" d="M504 -13C776 -13 927 82 927 209C927 319 820 390 524 413C352 432 287 461 287 512C287 563 380 607 517 607C657 607 781 580 862 546V659C789 686 660 713 501 713C235 713 83 623 83 503C83 385 219 315 486 294C666 273 728 244 728 192C728 135 629 94 498 94C356 94 187 126 77 189L34 79C150 24 351 -13 504 -13Z"/><path transform="matrix(0.01100 0 0 -0.01100 22.60 14.16)" d="M467 -13C534 -13 610 1 628 4L621 109C610 105 550 93 490 93C390 93 341 124 341 203V438H632V534H341V667H302L10 501V440H179V181C179 44 284 -13 467 -13Z"/><path transform="matrix(0.01100 0 0 -0.01100 29.77 14.16)" d="M372 -13C506 -13 606 40 651 117H659L660 0H821V534H659V260C659 159 564 91 444 91C315 91 220 151 220 257V534H59V219C59 79 185 -13 372 -13Z"/><path transform="matrix(0.01100 0 0 -0.01100 39.44 14.16)" d="M409 -13C549 -13 669 42 731 127H743V0H904V781H743V407H731C669 492 548 547 408 547C199 547 38 428 38 267C38 107 200 -13 409 -13ZM473 95C321 95 201 166 201 267C201 368 322 439 474 439C625 439 740 367 740 267C740 168 624 95 473 95Z"/><path transform="matrix(0.01100 0 0 -0.01100 50.04 14.16)" d="M142 626C199 626 236 659 236 699C236 741 199 774 142 774C85 774 46 741 46 699C46 659 85 626 142 626ZM60 0H222V534H60Z"/><path transform="matrix(0.01100 0 0 -0.01100 53.16 14.16)" d="M454 -13C703 -13 870 104 870 267C870 431 704 547 454 547C205 547 37 431 37 267C37 103 204 -13 454 -13ZM454 83C301 83 186 160 186 267C186 375 300 450 453 450C607 450 720 375 720 267C720 160 607 83 454 83Z"/></g>
</svg>
