<svg xmlns="http://www.w3.org/2000/svg" viewBox="0 0 1024 1024"><rect width="1024" height="1024" fill="#262b39"/><path transform="translate(118.24,571.27) scale(0.15256,-0.15256)" d="M64.0 0H690.0C916.0 0 1030.0 80 1030.0 194C1030.0 279 954.0 357 827.0 369V377C924.0 392 980.0 457 980.0 522C980.0 631 875.0 700 648.0 700H64.0ZM357.0 396V531H584.0C647.0 531 686.0 504 686.0 464C686.0 424 638.0 396 581.0 396ZM357.0 169V307H614.0C678.0 307 723.0 280 723.0 238C723.0 197 682.0 169 616.0 169ZM1516.0 -14C1795.0 -14 1950.0 105 1950.0 268C1950.0 431 1796.0 549 1518.0 549C1241.0 549 1083.0 430 1083.0 267C1083.0 104 1238.0 -14 1516.0 -14ZM1517.0 138C1405.0 138 1330.0 197 1330.0 268C1330.0 339 1403.0 395 1515.0 395C1629.0 395 1704.0 338 1704.0 267C1704.0 197 1630.0 138 1517.0 138ZM2019.0 0H2291.0V784H2019.0ZM2799.0 -14C2908.0 -14 3022.0 3 3090.0 27L3063.0 170C2992.0 143 2906.0 130 2822.0 130C2703.0 130 2630.0 167 2609.0 218H3159.0C3164.0 230 3169.0 262 3169.0 276C3169.0 430 3001.0 549 2771.0 549C2530.0 549 2360.0 434 2360.0 269C2360.0 133 2499.0 -14 2799.0 -14ZM2597.0 300C2610.0 363 2681.0 403 2775.0 403C2871.0 403 2946.0 355 2941.0 300ZM3687.0 -14C3726.0 -14 3816.0 -8 3842.0 -3L3839.0 168C3825.0 163 3772.0 157 3738.0 157C3664.0 157 3621.0 171 3621.0 232V381H3849.0V535H3621.0V688H3566.0L3204.0 488V381H3349.0V192C3349.0 35 3480.0 -14 3687.0 -14ZM4044.0 577C4137.0 577 4194.0 624 4194.0 684C4194.0 744 4137.0 791 4044.0 791C3951.0 791 3894.0 744 3894.0 684C3894.0 624 3951.0 577 4044.0 577ZM3906.0 0H4178.0V535H3906.0ZM4265.0 0H4537.0V281C4537.0 357 4597.0 403 4679.0 403C4762.0 403 4826.0 359 4826.0 288V0H5098.0V311C5098.0 448 4948.0 549 4749.0 549C4621.0 549 4510.0 501 4449.0 432H4445.0L4294.0 535H4265.0Z" fill="#FFFFFF"/></svg>