<svg xmlns="http://www.w3.org/2000/svg" viewBox="0 0 6029 883" role="img" aria-label="V8Mind">
  <!-- Wordmark V8Mind. V8=Balgin Expanded Bold, Mind=Balgin Expanded Regular.
       Vectorizado a paths. Color #262b39. Generado por branding/wordmarks/_generate.py. -->
  <g transform="translate(36.00,821.00) scale(1,-1)" fill="#262b39"><path d="M559.0 -22.0H590.0L1144.0 700.0H835.0L577.0 349.0H571.0L315.0 700.0H4.0ZM1678.0 -14.0C1967.0 -14.0 2151.0 69.0 2151.0 197.0C2151.0 283.0 2087.0 344.0 1938.0 369.0V379.0C2048.0 395.0 2108.0 459.0 2108.0 529.0C2108.0 633.0 1974.0 714.0 1678.0 714.0C1382.0 714.0 1247.0 633.0 1247.0 529.0C1247.0 459.0 1307.0 395.0 1417.0 379.0V369.0C1268.0 344.0 1204.0 283.0 1204.0 197.0C1204.0 69.0 1389.0 -14.0 1678.0 -14.0ZM1678.0 414.0C1587.0 414.0 1534.0 440.0 1534.0 481.0C1534.0 521.0 1587.0 548.0 1678.0 548.0C1768.0 548.0 1821.0 521.0 1821.0 481.0C1821.0 440.0 1768.0 414.0 1678.0 414.0ZM1678.0 161.0C1571.0 161.0 1506.0 192.0 1506.0 238.0C1506.0 284.0 1571.0 317.0 1678.0 317.0C1785.0 317.0 1848.0 284.0 1848.0 238.0C1848.0 192.0 1785.0 161.0 1678.0 161.0ZM2538.0 0.0H2735.0L2891.0 401.0H2898.0L3175.0 62.0H3202.0L3478.0 401.0H3486.0L3642.0 0.0H3839.0L3558.0 717.0H3530.0L3191.0 290.0H3184.0L2847.0 717.0H2820.0ZM4027.0 626.0C4084.0 626.0 4121.0 659.0 4121.0 699.0C4121.0 741.0 4084.0 774.0 4027.0 774.0C3970.0 774.0 3931.0 741.0 3931.0 699.0C3931.0 659.0 3970.0 626.0 4027.0 626.0ZM3945.0 0.0H4107.0V534.0H3945.0ZM4228.0 0.0H4390.0V276.0C4390.0 377.0 4484.0 444.0 4605.0 444.0C4730.0 444.0 4828.0 381.0 4828.0 279.0V0.0H4990.0V302.0C4990.0 445.0 4841.0 547.0 4647.0 547.0C4519.0 547.0 4407.0 498.0 4348.0 423.0H4341.0L4256.0 534.0H4228.0ZM5458.0 -13.0C5598.0 -13.0 5718.0 42.0 5780.0 127.0H5792.0V0.0H5953.0V781.0H5792.0V407.0H5780.0C5718.0 492.0 5597.0 547.0 5457.0 547.0C5248.0 547.0 5087.0 428.0 5087.0 267.0C5087.0 107.0 5249.0 -13.0 5458.0 -13.0ZM5522.0 95.0C5370.0 95.0 5250.0 166.0 5250.0 267.0C5250.0 368.0 5371.0 439.0 5523.0 439.0C5674.0 439.0 5789.0 367.0 5789.0 267.0C5789.0 168.0 5673.0 95.0 5522.0 95.0Z"/></g>
</svg>
