<svg xmlns="http://www.w3.org/2000/svg" viewBox="0 0 8765 883" role="img" aria-label="V8Retailers">
  <!-- Wordmark V8Retailers. V8=Balgin Expanded Bold, Retailers=Balgin Expanded Regular.
       Vectorizado a paths. Color #262b39. Generado por branding/wordmarks/_generate.py. -->
  <g transform="translate(36.00,821.00) scale(1,-1)" fill="#262b39"><path d="M559.0 -22.0H590.0L1144.0 700.0H835.0L577.0 349.0H571.0L315.0 700.0H4.0ZM1678.0 -14.0C1967.0 -14.0 2151.0 69.0 2151.0 197.0C2151.0 283.0 2087.0 344.0 1938.0 369.0V379.0C2048.0 395.0 2108.0 459.0 2108.0 529.0C2108.0 633.0 1974.0 714.0 1678.0 714.0C1382.0 714.0 1247.0 633.0 1247.0 529.0C1247.0 459.0 1307.0 395.0 1417.0 379.0V369.0C1268.0 344.0 1204.0 283.0 1204.0 197.0C1204.0 69.0 1389.0 -14.0 1678.0 -14.0ZM1678.0 414.0C1587.0 414.0 1534.0 440.0 1534.0 481.0C1534.0 521.0 1587.0 548.0 1678.0 548.0C1768.0 548.0 1821.0 521.0 1821.0 481.0C1821.0 440.0 1768.0 414.0 1678.0 414.0ZM1678.0 161.0C1571.0 161.0 1506.0 192.0 1506.0 238.0C1506.0 284.0 1571.0 317.0 1678.0 317.0C1785.0 317.0 1848.0 284.0 1848.0 238.0C1848.0 192.0 1785.0 161.0 1678.0 161.0ZM2581.0 0.0H2753.0V253.0L3055.0 254.0L3268.0 0.0H3456.0L3205.0 293.0C3351.0 309.0 3441.0 388.0 3441.0 496.0C3441.0 624.0 3314.0 700.0 3118.0 700.0H2581.0ZM2753.0 371.0V582.0H3078.0C3192.0 582.0 3266.0 542.0 3266.0 478.0C3266.0 415.0 3187.0 371.0 3075.0 371.0ZM3970.0 -13.0C4089.0 -13.0 4210.0 10.0 4287.0 57.0L4260.0 145.0C4187.0 100.0 4081.0 79.0 3981.0 79.0C3820.0 79.0 3708.0 132.0 3694.0 223.0H4340.0C4343.0 232.0 4346.0 261.0 4346.0 271.0C4346.0 431.0 4174.0 547.0 3948.0 547.0C3717.0 547.0 3543.0 433.0 3543.0 268.0C3543.0 118.0 3694.0 -13.0 3970.0 -13.0ZM3692.0 313.0C3715.0 399.0 3824.0 454.0 3950.0 454.0C4078.0 454.0 4186.0 396.0 4204.0 313.0ZM4851.0 -13.0C4918.0 -13.0 4994.0 1.0 5012.0 4.0L5005.0 109.0C4994.0 105.0 4934.0 93.0 4874.0 93.0C4774.0 93.0 4725.0 124.0 4725.0 203.0V438.0H5016.0V534.0H4725.0V667.0H4686.0L4394.0 501.0V440.0H4563.0V181.0C4563.0 44.0 4668.0 -13.0 4851.0 -13.0ZM5435.0 -11.0C5584.0 -11.0 5707.0 50.0 5753.0 139.0H5763.0V0.0H5925.0V534.0H5899.0L5805.0 411.0H5799.0C5731.0 495.0 5602.0 547.0 5455.0 547.0C5233.0 547.0 5075.0 427.0 5075.0 267.0C5075.0 101.0 5223.0 -11.0 5435.0 -11.0ZM5510.0 101.0C5362.0 101.0 5242.0 167.0 5242.0 268.0C5242.0 370.0 5363.0 436.0 5510.0 436.0C5656.0 436.0 5771.0 369.0 5771.0 269.0C5771.0 169.0 5655.0 101.0 5510.0 101.0ZM6127.0 626.0C6184.0 626.0 6221.0 659.0 6221.0 699.0C6221.0 741.0 6184.0 774.0 6127.0 774.0C6070.0 774.0 6031.0 741.0 6031.0 699.0C6031.0 659.0 6070.0 626.0 6127.0 626.0ZM6045.0 0.0H6207.0V534.0H6045.0ZM6329.0 0.0H6491.0V781.0H6329.0ZM7016.0 -13.0C7135.0 -13.0 7256.0 10.0 7333.0 57.0L7306.0 145.0C7233.0 100.0 7127.0 79.0 7027.0 79.0C6866.0 79.0 6754.0 132.0 6740.0 223.0H7386.0C7389.0 232.0 7392.0 261.0 7392.0 271.0C7392.0 431.0 7220.0 547.0 6994.0 547.0C6763.0 547.0 6589.0 433.0 6589.0 268.0C6589.0 118.0 6740.0 -13.0 7016.0 -13.0ZM6738.0 313.0C6761.0 399.0 6870.0 454.0 6996.0 454.0C7124.0 454.0 7232.0 396.0 7250.0 313.0ZM7490.0 0.0H7652.0V261.0C7655.0 375.0 7751.0 447.0 7889.0 447.0C7933.0 447.0 7958.0 441.0 7986.0 430.0L7991.0 536.0C7957.0 543.0 7928.0 547.0 7885.0 547.0C7753.0 547.0 7657.0 500.0 7610.0 427.0H7604.0L7518.0 534.0H7490.0ZM8390.0 -13.0C8580.0 -13.0 8689.0 53.0 8689.0 144.0C8689.0 232.0 8615.0 282.0 8425.0 308.0C8286.0 327.0 8248.0 346.0 8248.0 386.0C8248.0 428.0 8315.0 449.0 8413.0 449.0C8498.0 449.0 8582.0 430.0 8641.0 409.0V509.0C8570.0 531.0 8485.0 547.0 8375.0 547.0C8188.0 547.0 8076.0 480.0 8076.0 394.0C8076.0 307.0 8159.0 256.0 8335.0 231.0C8472.0 212.0 8516.0 194.0 8516.0 151.0C8516.0 110.0 8454.0 84.0 8351.0 84.0C8252.0 84.0 8133.0 117.0 8061.0 158.0L8032.0 61.0C8126.0 14.0 8246.0 -13.0 8390.0 -13.0Z"/></g>
</svg>
