<svg xmlns="http://www.w3.org/2000/svg" viewBox="0 0 10987 816" role="img" aria-label="V8Ecommerce">
  <!-- Wordmark V8Ecommerce. V8=Balgin Expanded Bold, Ecommerce=Balgin Expanded Regular.
       Vectorizado a paths. Color #262b39. Generado por branding/wordmarks/_generate.py. -->
  <g transform="translate(36.00,754.00) scale(1,-1)" fill="#262b39"><path d="M559.0 -22.0H590.0L1144.0 700.0H835.0L577.0 349.0H571.0L315.0 700.0H4.0ZM1678.0 -14.0C1967.0 -14.0 2151.0 69.0 2151.0 197.0C2151.0 283.0 2087.0 344.0 1938.0 369.0V379.0C2048.0 395.0 2108.0 459.0 2108.0 529.0C2108.0 633.0 1974.0 714.0 1678.0 714.0C1382.0 714.0 1247.0 633.0 1247.0 529.0C1247.0 459.0 1307.0 395.0 1417.0 379.0V369.0C1268.0 344.0 1204.0 283.0 1204.0 197.0C1204.0 69.0 1389.0 -14.0 1678.0 -14.0ZM1678.0 414.0C1587.0 414.0 1534.0 440.0 1534.0 481.0C1534.0 521.0 1587.0 548.0 1678.0 548.0C1768.0 548.0 1821.0 521.0 1821.0 481.0C1821.0 440.0 1768.0 414.0 1678.0 414.0ZM1678.0 161.0C1571.0 161.0 1506.0 192.0 1506.0 238.0C1506.0 284.0 1571.0 317.0 1678.0 317.0C1785.0 317.0 1848.0 284.0 1848.0 238.0C1848.0 192.0 1785.0 161.0 1678.0 161.0ZM2581.0 0.0H3415.0V112.0H2752.0V296.0H3284.0V408.0H2752.0V588.0H3399.0V700.0H2581.0ZM3970.0 -13.0C4075.0 -13.0 4185.0 9.0 4256.0 43.0V153.0C4183.0 115.0 4084.0 88.0 3986.0 88.0C3814.0 88.0 3680.0 161.0 3680.0 269.0C3680.0 373.0 3805.0 446.0 3964.0 446.0C4058.0 446.0 4143.0 420.0 4196.0 383.0L4238.0 473.0C4170.0 521.0 4050.0 547.0 3948.0 547.0C3698.0 547.0 3515.0 438.0 3515.0 267.0C3515.0 91.0 3710.0 -13.0 3970.0 -13.0ZM4732.0 -13.0C4981.0 -13.0 5148.0 104.0 5148.0 267.0C5148.0 431.0 4982.0 547.0 4732.0 547.0C4483.0 547.0 4315.0 431.0 4315.0 267.0C4315.0 103.0 4482.0 -13.0 4732.0 -13.0ZM4732.0 83.0C4579.0 83.0 4464.0 160.0 4464.0 267.0C4464.0 375.0 4578.0 450.0 4731.0 450.0C4885.0 450.0 4998.0 375.0 4998.0 267.0C4998.0 160.0 4885.0 83.0 4732.0 83.0ZM5245.0 0.0H5407.0V313.0C5411.0 393.0 5491.0 444.0 5590.0 444.0C5699.0 444.0 5765.0 392.0 5765.0 310.0V0.0H5927.0V308.0C5927.0 391.0 6005.0 444.0 6105.0 444.0C6205.0 444.0 6280.0 391.0 6280.0 310.0V0.0H6441.0V324.0C6441.0 454.0 6319.0 547.0 6144.0 547.0C6026.0 547.0 5933.0 503.0 5887.0 435.0H5877.0C5835.0 504.0 5745.0 547.0 5620.0 547.0C5504.0 547.0 5409.0 503.0 5361.0 436.0H5354.0L5273.0 534.0H5245.0ZM6559.0 0.0H6721.0V313.0C6725.0 393.0 6805.0 444.0 6904.0 444.0C7013.0 444.0 7079.0 392.0 7079.0 310.0V0.0H7241.0V308.0C7241.0 391.0 7319.0 444.0 7419.0 444.0C7519.0 444.0 7594.0 391.0 7594.0 310.0V0.0H7755.0V324.0C7755.0 454.0 7633.0 547.0 7458.0 547.0C7340.0 547.0 7247.0 503.0 7201.0 435.0H7191.0C7149.0 504.0 7059.0 547.0 6934.0 547.0C6818.0 547.0 6723.0 503.0 6675.0 436.0H6668.0L6587.0 534.0H6559.0ZM8277.0 -13.0C8396.0 -13.0 8517.0 10.0 8594.0 57.0L8567.0 145.0C8494.0 100.0 8388.0 79.0 8288.0 79.0C8127.0 79.0 8015.0 132.0 8001.0 223.0H8647.0C8650.0 232.0 8653.0 261.0 8653.0 271.0C8653.0 431.0 8481.0 547.0 8255.0 547.0C8024.0 547.0 7850.0 433.0 7850.0 268.0C7850.0 118.0 8001.0 -13.0 8277.0 -13.0ZM7999.0 313.0C8022.0 399.0 8131.0 454.0 8257.0 454.0C8385.0 454.0 8493.0 396.0 8511.0 313.0ZM8751.0 0.0H8913.0V261.0C8916.0 375.0 9012.0 447.0 9150.0 447.0C9194.0 447.0 9219.0 441.0 9247.0 430.0L9252.0 536.0C9218.0 543.0 9189.0 547.0 9146.0 547.0C9014.0 547.0 8918.0 500.0 8871.0 427.0H8865.0L8779.0 534.0H8751.0ZM9763.0 -13.0C9868.0 -13.0 9978.0 9.0 10049.0 43.0V153.0C9976.0 115.0 9877.0 88.0 9779.0 88.0C9607.0 88.0 9473.0 161.0 9473.0 269.0C9473.0 373.0 9598.0 446.0 9757.0 446.0C9851.0 446.0 9936.0 420.0 9989.0 383.0L10031.0 473.0C9963.0 521.0 9843.0 547.0 9741.0 547.0C9491.0 547.0 9308.0 438.0 9308.0 267.0C9308.0 91.0 9503.0 -13.0 9763.0 -13.0ZM10535.0 -13.0C10654.0 -13.0 10775.0 10.0 10852.0 57.0L10825.0 145.0C10752.0 100.0 10646.0 79.0 10546.0 79.0C10385.0 79.0 10273.0 132.0 10259.0 223.0H10905.0C10908.0 232.0 10911.0 261.0 10911.0 271.0C10911.0 431.0 10739.0 547.0 10513.0 547.0C10282.0 547.0 10108.0 433.0 10108.0 268.0C10108.0 118.0 10259.0 -13.0 10535.0 -13.0ZM10257.0 313.0C10280.0 399.0 10389.0 454.0 10515.0 454.0C10643.0 454.0 10751.0 396.0 10769.0 313.0Z"/></g>
</svg>
