<svg xmlns="http://www.w3.org/2000/svg" viewBox="0 0 7426 883" role="img" aria-label="V8Boletin">
  <!-- Wordmark V8Boletin. V8=Balgin Expanded Bold, Boletin=Balgin Expanded Regular.
       Vectorizado a paths. Color #FFFFFF. Generado por branding/wordmarks/_generate.py. -->
  <g transform="translate(36.00,821.00) scale(1,-1)" fill="#FFFFFF"><path d="M559.0 -22.0H590.0L1144.0 700.0H835.0L577.0 349.0H571.0L315.0 700.0H4.0ZM1678.0 -14.0C1967.0 -14.0 2151.0 69.0 2151.0 197.0C2151.0 283.0 2087.0 344.0 1938.0 369.0V379.0C2048.0 395.0 2108.0 459.0 2108.0 529.0C2108.0 633.0 1974.0 714.0 1678.0 714.0C1382.0 714.0 1247.0 633.0 1247.0 529.0C1247.0 459.0 1307.0 395.0 1417.0 379.0V369.0C1268.0 344.0 1204.0 283.0 1204.0 197.0C1204.0 69.0 1389.0 -14.0 1678.0 -14.0ZM1678.0 414.0C1587.0 414.0 1534.0 440.0 1534.0 481.0C1534.0 521.0 1587.0 548.0 1678.0 548.0C1768.0 548.0 1821.0 521.0 1821.0 481.0C1821.0 440.0 1768.0 414.0 1678.0 414.0ZM1678.0 161.0C1571.0 161.0 1506.0 192.0 1506.0 238.0C1506.0 284.0 1571.0 317.0 1678.0 317.0C1785.0 317.0 1848.0 284.0 1848.0 238.0C1848.0 192.0 1785.0 161.0 1678.0 161.0ZM2581.0 0.0H3147.0C3363.0 0.0 3469.0 78.0 3469.0 191.0C3469.0 276.0 3389.0 352.0 3262.0 366.0V372.0C3357.0 389.0 3417.0 456.0 3417.0 524.0C3417.0 630.0 3320.0 700.0 3117.0 700.0H2581.0ZM2754.0 403.0V594.0H3085.0C3186.0 594.0 3245.0 557.0 3245.0 499.0C3245.0 441.0 3188.0 403.0 3086.0 403.0ZM2754.0 106.0V306.0H3124.0C3229.0 306.0 3290.0 272.0 3290.0 209.0C3290.0 150.0 3234.0 106.0 3121.0 106.0ZM3978.0 -13.0C4227.0 -13.0 4394.0 104.0 4394.0 267.0C4394.0 431.0 4228.0 547.0 3978.0 547.0C3729.0 547.0 3561.0 431.0 3561.0 267.0C3561.0 103.0 3728.0 -13.0 3978.0 -13.0ZM3978.0 83.0C3825.0 83.0 3710.0 160.0 3710.0 267.0C3710.0 375.0 3824.0 450.0 3977.0 450.0C4131.0 450.0 4244.0 375.0 4244.0 267.0C4244.0 160.0 4131.0 83.0 3978.0 83.0ZM4492.0 0.0H4654.0V781.0H4492.0ZM5179.0 -13.0C5298.0 -13.0 5419.0 10.0 5496.0 57.0L5469.0 145.0C5396.0 100.0 5290.0 79.0 5190.0 79.0C5029.0 79.0 4917.0 132.0 4903.0 223.0H5549.0C5552.0 232.0 5555.0 261.0 5555.0 271.0C5555.0 431.0 5383.0 547.0 5157.0 547.0C4926.0 547.0 4752.0 433.0 4752.0 268.0C4752.0 118.0 4903.0 -13.0 5179.0 -13.0ZM4901.0 313.0C4924.0 399.0 5033.0 454.0 5159.0 454.0C5287.0 454.0 5395.0 396.0 5413.0 313.0ZM6060.0 -13.0C6127.0 -13.0 6203.0 1.0 6221.0 4.0L6214.0 109.0C6203.0 105.0 6143.0 93.0 6083.0 93.0C5983.0 93.0 5934.0 124.0 5934.0 203.0V438.0H6225.0V534.0H5934.0V667.0H5895.0L5603.0 501.0V440.0H5772.0V181.0C5772.0 44.0 5877.0 -13.0 6060.0 -13.0ZM6387.0 626.0C6444.0 626.0 6481.0 659.0 6481.0 699.0C6481.0 741.0 6444.0 774.0 6387.0 774.0C6330.0 774.0 6291.0 741.0 6291.0 699.0C6291.0 659.0 6330.0 626.0 6387.0 626.0ZM6305.0 0.0H6467.0V534.0H6305.0ZM6588.0 0.0H6750.0V276.0C6750.0 377.0 6844.0 444.0 6965.0 444.0C7090.0 444.0 7188.0 381.0 7188.0 279.0V0.0H7350.0V302.0C7350.0 445.0 7201.0 547.0 7007.0 547.0C6879.0 547.0 6767.0 498.0 6708.0 423.0H6701.0L6616.0 534.0H6588.0Z"/></g>
</svg>
