<svg xmlns="http://www.w3.org/2000/svg" viewBox="0 0 7194 883" role="img" aria-label="V8Studio">
  <!-- Wordmark V8Studio. V8=Balgin Expanded Bold, Studio=Balgin Expanded Regular.
       Vectorizado a paths. Color #FFFFFF. Generado por branding/wordmarks/_generate.py. -->
  <g transform="translate(36.00,821.00) scale(1,-1)" fill="#FFFFFF"><path d="M559.0 -22.0H590.0L1144.0 700.0H835.0L577.0 349.0H571.0L315.0 700.0H4.0ZM1678.0 -14.0C1967.0 -14.0 2151.0 69.0 2151.0 197.0C2151.0 283.0 2087.0 344.0 1938.0 369.0V379.0C2048.0 395.0 2108.0 459.0 2108.0 529.0C2108.0 633.0 1974.0 714.0 1678.0 714.0C1382.0 714.0 1247.0 633.0 1247.0 529.0C1247.0 459.0 1307.0 395.0 1417.0 379.0V369.0C1268.0 344.0 1204.0 283.0 1204.0 197.0C1204.0 69.0 1389.0 -14.0 1678.0 -14.0ZM1678.0 414.0C1587.0 414.0 1534.0 440.0 1534.0 481.0C1534.0 521.0 1587.0 548.0 1678.0 548.0C1768.0 548.0 1821.0 521.0 1821.0 481.0C1821.0 440.0 1768.0 414.0 1678.0 414.0ZM1678.0 161.0C1571.0 161.0 1506.0 192.0 1506.0 238.0C1506.0 284.0 1571.0 317.0 1678.0 317.0C1785.0 317.0 1848.0 284.0 1848.0 238.0C1848.0 192.0 1785.0 161.0 1678.0 161.0ZM2996.0 -13.0C3268.0 -13.0 3419.0 82.0 3419.0 209.0C3419.0 319.0 3312.0 390.0 3016.0 413.0C2844.0 432.0 2779.0 461.0 2779.0 512.0C2779.0 563.0 2872.0 607.0 3009.0 607.0C3149.0 607.0 3273.0 580.0 3354.0 546.0V659.0C3281.0 686.0 3152.0 713.0 2993.0 713.0C2727.0 713.0 2575.0 623.0 2575.0 503.0C2575.0 385.0 2711.0 315.0 2978.0 294.0C3158.0 273.0 3220.0 244.0 3220.0 192.0C3220.0 135.0 3121.0 94.0 2990.0 94.0C2848.0 94.0 2679.0 126.0 2569.0 189.0L2526.0 79.0C2642.0 24.0 2843.0 -13.0 2996.0 -13.0ZM3937.0 -13.0C4004.0 -13.0 4080.0 1.0 4098.0 4.0L4091.0 109.0C4080.0 105.0 4020.0 93.0 3960.0 93.0C3860.0 93.0 3811.0 124.0 3811.0 203.0V438.0H4102.0V534.0H3811.0V667.0H3772.0L3480.0 501.0V440.0H3649.0V181.0C3649.0 44.0 3754.0 -13.0 3937.0 -13.0ZM4494.0 -13.0C4628.0 -13.0 4728.0 40.0 4773.0 117.0H4781.0L4782.0 0.0H4943.0V534.0H4781.0V260.0C4781.0 159.0 4686.0 91.0 4566.0 91.0C4437.0 91.0 4342.0 151.0 4342.0 257.0V534.0H4181.0V219.0C4181.0 79.0 4307.0 -13.0 4494.0 -13.0ZM5410.0 -13.0C5550.0 -13.0 5670.0 42.0 5732.0 127.0H5744.0V0.0H5905.0V781.0H5744.0V407.0H5732.0C5670.0 492.0 5549.0 547.0 5409.0 547.0C5200.0 547.0 5039.0 428.0 5039.0 267.0C5039.0 107.0 5201.0 -13.0 5410.0 -13.0ZM5474.0 95.0C5322.0 95.0 5202.0 166.0 5202.0 267.0C5202.0 368.0 5323.0 439.0 5475.0 439.0C5626.0 439.0 5741.0 367.0 5741.0 267.0C5741.0 168.0 5625.0 95.0 5474.0 95.0ZM6107.0 626.0C6164.0 626.0 6201.0 659.0 6201.0 699.0C6201.0 741.0 6164.0 774.0 6107.0 774.0C6050.0 774.0 6011.0 741.0 6011.0 699.0C6011.0 659.0 6050.0 626.0 6107.0 626.0ZM6025.0 0.0H6187.0V534.0H6025.0ZM6702.0 -13.0C6951.0 -13.0 7118.0 104.0 7118.0 267.0C7118.0 431.0 6952.0 547.0 6702.0 547.0C6453.0 547.0 6285.0 431.0 6285.0 267.0C6285.0 103.0 6452.0 -13.0 6702.0 -13.0ZM6702.0 83.0C6549.0 83.0 6434.0 160.0 6434.0 267.0C6434.0 375.0 6548.0 450.0 6701.0 450.0C6855.0 450.0 6968.0 375.0 6968.0 267.0C6968.0 160.0 6855.0 83.0 6702.0 83.0Z"/></g>
</svg>
