<svg xmlns="http://www.w3.org/2000/svg" viewBox="0 0 6099 883" role="img" aria-label="V8Labs">
  <!-- Wordmark V8Labs. V8=Balgin Expanded Bold, Labs=Balgin Expanded Regular.
       Vectorizado a paths. Color #FFFFFF. Generado por branding/wordmarks/_generate.py. -->
  <g transform="translate(36.00,821.00) scale(1,-1)" fill="#FFFFFF"><path d="M559.0 -22.0H590.0L1144.0 700.0H835.0L577.0 349.0H571.0L315.0 700.0H4.0ZM1678.0 -14.0C1967.0 -14.0 2151.0 69.0 2151.0 197.0C2151.0 283.0 2087.0 344.0 1938.0 369.0V379.0C2048.0 395.0 2108.0 459.0 2108.0 529.0C2108.0 633.0 1974.0 714.0 1678.0 714.0C1382.0 714.0 1247.0 633.0 1247.0 529.0C1247.0 459.0 1307.0 395.0 1417.0 379.0V369.0C1268.0 344.0 1204.0 283.0 1204.0 197.0C1204.0 69.0 1389.0 -14.0 1678.0 -14.0ZM1678.0 414.0C1587.0 414.0 1534.0 440.0 1534.0 481.0C1534.0 521.0 1587.0 548.0 1678.0 548.0C1768.0 548.0 1821.0 521.0 1821.0 481.0C1821.0 440.0 1768.0 414.0 1678.0 414.0ZM1678.0 161.0C1571.0 161.0 1506.0 192.0 1506.0 238.0C1506.0 284.0 1571.0 317.0 1678.0 317.0C1785.0 317.0 1848.0 284.0 1848.0 238.0C1848.0 192.0 1785.0 161.0 1678.0 161.0ZM2581.0 0.0H3389.0V128.0H2754.0V700.0H2581.0ZM3829.0 -11.0C3978.0 -11.0 4101.0 50.0 4147.0 139.0H4157.0V0.0H4319.0V534.0H4293.0L4199.0 411.0H4193.0C4125.0 495.0 3996.0 547.0 3849.0 547.0C3627.0 547.0 3469.0 427.0 3469.0 267.0C3469.0 101.0 3617.0 -11.0 3829.0 -11.0ZM3904.0 101.0C3756.0 101.0 3636.0 167.0 3636.0 268.0C3636.0 370.0 3757.0 436.0 3904.0 436.0C4050.0 436.0 4165.0 369.0 4165.0 269.0C4165.0 169.0 4049.0 101.0 3904.0 101.0ZM4935.0 -13.0C5144.0 -13.0 5306.0 107.0 5306.0 267.0C5306.0 428.0 5144.0 547.0 4936.0 547.0C4795.0 547.0 4675.0 492.0 4612.0 407.0H4601.0V781.0H4439.0V0.0H4601.0V127.0H4612.0C4674.0 42.0 4794.0 -13.0 4935.0 -13.0ZM4870.0 95.0C4719.0 95.0 4603.0 168.0 4603.0 267.0C4603.0 367.0 4718.0 439.0 4870.0 439.0C5021.0 439.0 5143.0 368.0 5143.0 267.0C5143.0 166.0 5022.0 95.0 4870.0 95.0ZM5724.0 -13.0C5914.0 -13.0 6023.0 53.0 6023.0 144.0C6023.0 232.0 5949.0 282.0 5759.0 308.0C5620.0 327.0 5582.0 346.0 5582.0 386.0C5582.0 428.0 5649.0 449.0 5747.0 449.0C5832.0 449.0 5916.0 430.0 5975.0 409.0V509.0C5904.0 531.0 5819.0 547.0 5709.0 547.0C5522.0 547.0 5410.0 480.0 5410.0 394.0C5410.0 307.0 5493.0 256.0 5669.0 231.0C5806.0 212.0 5850.0 194.0 5850.0 151.0C5850.0 110.0 5788.0 84.0 5685.0 84.0C5586.0 84.0 5467.0 117.0 5395.0 158.0L5366.0 61.0C5460.0 14.0 5580.0 -13.0 5724.0 -13.0Z"/></g>
</svg>
