<svg xmlns="http://www.w3.org/2000/svg" viewBox="0 0 11597 898" role="img" aria-label="V8Notifications">
  <!-- Wordmark V8Notifications. V8=Balgin Expanded Bold, Notifications=Balgin Expanded Regular.
       Vectorizado a paths. Color #FFFFFF. Generado por branding/wordmarks/_generate.py. -->
  <g transform="translate(36.00,836.00) scale(1,-1)" fill="#FFFFFF"><path d="M559.0 -22.0H590.0L1144.0 700.0H835.0L577.0 349.0H571.0L315.0 700.0H4.0ZM1678.0 -14.0C1967.0 -14.0 2151.0 69.0 2151.0 197.0C2151.0 283.0 2087.0 344.0 1938.0 369.0V379.0C2048.0 395.0 2108.0 459.0 2108.0 529.0C2108.0 633.0 1974.0 714.0 1678.0 714.0C1382.0 714.0 1247.0 633.0 1247.0 529.0C1247.0 459.0 1307.0 395.0 1417.0 379.0V369.0C1268.0 344.0 1204.0 283.0 1204.0 197.0C1204.0 69.0 1389.0 -14.0 1678.0 -14.0ZM1678.0 414.0C1587.0 414.0 1534.0 440.0 1534.0 481.0C1534.0 521.0 1587.0 548.0 1678.0 548.0C1768.0 548.0 1821.0 521.0 1821.0 481.0C1821.0 440.0 1768.0 414.0 1678.0 414.0ZM1678.0 161.0C1571.0 161.0 1506.0 192.0 1506.0 238.0C1506.0 284.0 1571.0 317.0 1678.0 317.0C1785.0 317.0 1848.0 284.0 1848.0 238.0C1848.0 192.0 1785.0 161.0 1678.0 161.0ZM3472.0 -17.0H3498.0V700.0H3327.0V256.0H3318.0L2607.0 717.0H2581.0V0.0H2752.0V445.0H2761.0ZM4041.0 -13.0C4290.0 -13.0 4457.0 104.0 4457.0 267.0C4457.0 431.0 4291.0 547.0 4041.0 547.0C3792.0 547.0 3624.0 431.0 3624.0 267.0C3624.0 103.0 3791.0 -13.0 4041.0 -13.0ZM4041.0 83.0C3888.0 83.0 3773.0 160.0 3773.0 267.0C3773.0 375.0 3887.0 450.0 4040.0 450.0C4194.0 450.0 4307.0 375.0 4307.0 267.0C4307.0 160.0 4194.0 83.0 4041.0 83.0ZM4961.0 -13.0C5028.0 -13.0 5104.0 1.0 5122.0 4.0L5115.0 109.0C5104.0 105.0 5044.0 93.0 4984.0 93.0C4884.0 93.0 4835.0 124.0 4835.0 203.0V438.0H5126.0V534.0H4835.0V667.0H4796.0L4504.0 501.0V440.0H4673.0V181.0C4673.0 44.0 4778.0 -13.0 4961.0 -13.0ZM5288.0 626.0C5345.0 626.0 5382.0 659.0 5382.0 699.0C5382.0 741.0 5345.0 774.0 5288.0 774.0C5231.0 774.0 5192.0 741.0 5192.0 699.0C5192.0 659.0 5231.0 626.0 5288.0 626.0ZM5206.0 0.0H5368.0V534.0H5206.0ZM5612.0 -1.0H5773.0V438.0H6076.0V534.0H5773.0V581.0C5773.0 652.0 5826.0 689.0 5929.0 689.0C5989.0 689.0 6039.0 675.0 6051.0 672.0L6058.0 780.0C6040.0 783.0 5983.0 796.0 5915.0 796.0C5718.0 796.0 5612.0 726.0 5612.0 586.0V534.0H5442.0V438.0H5612.0ZM6229.0 626.0C6286.0 626.0 6323.0 659.0 6323.0 699.0C6323.0 741.0 6286.0 774.0 6229.0 774.0C6172.0 774.0 6133.0 741.0 6133.0 699.0C6133.0 659.0 6172.0 626.0 6229.0 626.0ZM6147.0 0.0H6309.0V534.0H6147.0ZM6862.0 -13.0C6967.0 -13.0 7077.0 9.0 7148.0 43.0V153.0C7075.0 115.0 6976.0 88.0 6878.0 88.0C6706.0 88.0 6572.0 161.0 6572.0 269.0C6572.0 373.0 6697.0 446.0 6856.0 446.0C6950.0 446.0 7035.0 420.0 7088.0 383.0L7130.0 473.0C7062.0 521.0 6942.0 547.0 6840.0 547.0C6590.0 547.0 6407.0 438.0 6407.0 267.0C6407.0 91.0 6602.0 -13.0 6862.0 -13.0ZM7569.0 -11.0C7718.0 -11.0 7841.0 50.0 7887.0 139.0H7897.0V0.0H8059.0V534.0H8033.0L7939.0 411.0H7933.0C7865.0 495.0 7736.0 547.0 7589.0 547.0C7367.0 547.0 7209.0 427.0 7209.0 267.0C7209.0 101.0 7357.0 -11.0 7569.0 -11.0ZM7644.0 101.0C7496.0 101.0 7376.0 167.0 7376.0 268.0C7376.0 370.0 7497.0 436.0 7644.0 436.0C7790.0 436.0 7905.0 369.0 7905.0 269.0C7905.0 169.0 7789.0 101.0 7644.0 101.0ZM8586.0 -13.0C8653.0 -13.0 8729.0 1.0 8747.0 4.0L8740.0 109.0C8729.0 105.0 8669.0 93.0 8609.0 93.0C8509.0 93.0 8460.0 124.0 8460.0 203.0V438.0H8751.0V534.0H8460.0V667.0H8421.0L8129.0 501.0V440.0H8298.0V181.0C8298.0 44.0 8403.0 -13.0 8586.0 -13.0ZM8913.0 626.0C8970.0 626.0 9007.0 659.0 9007.0 699.0C9007.0 741.0 8970.0 774.0 8913.0 774.0C8856.0 774.0 8817.0 741.0 8817.0 699.0C8817.0 659.0 8856.0 626.0 8913.0 626.0ZM8831.0 0.0H8993.0V534.0H8831.0ZM9508.0 -13.0C9757.0 -13.0 9924.0 104.0 9924.0 267.0C9924.0 431.0 9758.0 547.0 9508.0 547.0C9259.0 547.0 9091.0 431.0 9091.0 267.0C9091.0 103.0 9258.0 -13.0 9508.0 -13.0ZM9508.0 83.0C9355.0 83.0 9240.0 160.0 9240.0 267.0C9240.0 375.0 9354.0 450.0 9507.0 450.0C9661.0 450.0 9774.0 375.0 9774.0 267.0C9774.0 160.0 9661.0 83.0 9508.0 83.0ZM10021.0 0.0H10183.0V276.0C10183.0 377.0 10277.0 444.0 10398.0 444.0C10523.0 444.0 10621.0 381.0 10621.0 279.0V0.0H10783.0V302.0C10783.0 445.0 10634.0 547.0 10440.0 547.0C10312.0 547.0 10200.0 498.0 10141.0 423.0H10134.0L10049.0 534.0H10021.0ZM11222.0 -13.0C11412.0 -13.0 11521.0 53.0 11521.0 144.0C11521.0 232.0 11447.0 282.0 11257.0 308.0C11118.0 327.0 11080.0 346.0 11080.0 386.0C11080.0 428.0 11147.0 449.0 11245.0 449.0C11330.0 449.0 11414.0 430.0 11473.0 409.0V509.0C11402.0 531.0 11317.0 547.0 11207.0 547.0C11020.0 547.0 10908.0 480.0 10908.0 394.0C10908.0 307.0 10991.0 256.0 11167.0 231.0C11304.0 212.0 11348.0 194.0 11348.0 151.0C11348.0 110.0 11286.0 84.0 11183.0 84.0C11084.0 84.0 10965.0 117.0 10893.0 158.0L10864.0 61.0C10958.0 14.0 11078.0 -13.0 11222.0 -13.0Z"/></g>
</svg>
