<svg xmlns="http://www.w3.org/2000/svg" viewBox="0 0 6910 883" role="img" aria-label="V8Studio">
  <!-- Wordmark V8Studio. V8=Balgin Expanded Bold, Studio=Balgin Expanded Regular.
       Vectorizado a paths. Color #262b39. Generado por branding/wordmarks/_generate.py. -->
  <g transform="translate(36.00,821.00) scale(1,-1)" fill="#262b39"><path d="M559.0 -22.0H590.0L1144.0 700.0H835.0L577.0 349.0H571.0L315.0 700.0H4.0ZM1678.0 -14.0C1967.0 -14.0 2151.0 69.0 2151.0 197.0C2151.0 283.0 2087.0 344.0 1938.0 369.0V379.0C2048.0 395.0 2108.0 459.0 2108.0 529.0C2108.0 633.0 1974.0 714.0 1678.0 714.0C1382.0 714.0 1247.0 633.0 1247.0 529.0C1247.0 459.0 1307.0 395.0 1417.0 379.0V369.0C1268.0 344.0 1204.0 283.0 1204.0 197.0C1204.0 69.0 1389.0 -14.0 1678.0 -14.0ZM1678.0 414.0C1587.0 414.0 1534.0 440.0 1534.0 481.0C1534.0 521.0 1587.0 548.0 1678.0 548.0C1768.0 548.0 1821.0 521.0 1821.0 481.0C1821.0 440.0 1768.0 414.0 1678.0 414.0ZM1678.0 161.0C1571.0 161.0 1506.0 192.0 1506.0 238.0C1506.0 284.0 1571.0 317.0 1678.0 317.0C1785.0 317.0 1848.0 284.0 1848.0 238.0C1848.0 192.0 1785.0 161.0 1678.0 161.0ZM2712.0 -13.0C2984.0 -13.0 3135.0 82.0 3135.0 209.0C3135.0 319.0 3028.0 390.0 2732.0 413.0C2560.0 432.0 2495.0 461.0 2495.0 512.0C2495.0 563.0 2588.0 607.0 2725.0 607.0C2865.0 607.0 2989.0 580.0 3070.0 546.0V659.0C2997.0 686.0 2868.0 713.0 2709.0 713.0C2443.0 713.0 2291.0 623.0 2291.0 503.0C2291.0 385.0 2427.0 315.0 2694.0 294.0C2874.0 273.0 2936.0 244.0 2936.0 192.0C2936.0 135.0 2837.0 94.0 2706.0 94.0C2564.0 94.0 2395.0 126.0 2285.0 189.0L2242.0 79.0C2358.0 24.0 2559.0 -13.0 2712.0 -13.0ZM3653.0 -13.0C3720.0 -13.0 3796.0 1.0 3814.0 4.0L3807.0 109.0C3796.0 105.0 3736.0 93.0 3676.0 93.0C3576.0 93.0 3527.0 124.0 3527.0 203.0V438.0H3818.0V534.0H3527.0V667.0H3488.0L3196.0 501.0V440.0H3365.0V181.0C3365.0 44.0 3470.0 -13.0 3653.0 -13.0ZM4210.0 -13.0C4344.0 -13.0 4444.0 40.0 4489.0 117.0H4497.0L4498.0 0.0H4659.0V534.0H4497.0V260.0C4497.0 159.0 4402.0 91.0 4282.0 91.0C4153.0 91.0 4058.0 151.0 4058.0 257.0V534.0H3897.0V219.0C3897.0 79.0 4023.0 -13.0 4210.0 -13.0ZM5126.0 -13.0C5266.0 -13.0 5386.0 42.0 5448.0 127.0H5460.0V0.0H5621.0V781.0H5460.0V407.0H5448.0C5386.0 492.0 5265.0 547.0 5125.0 547.0C4916.0 547.0 4755.0 428.0 4755.0 267.0C4755.0 107.0 4917.0 -13.0 5126.0 -13.0ZM5190.0 95.0C5038.0 95.0 4918.0 166.0 4918.0 267.0C4918.0 368.0 5039.0 439.0 5191.0 439.0C5342.0 439.0 5457.0 367.0 5457.0 267.0C5457.0 168.0 5341.0 95.0 5190.0 95.0ZM5823.0 626.0C5880.0 626.0 5917.0 659.0 5917.0 699.0C5917.0 741.0 5880.0 774.0 5823.0 774.0C5766.0 774.0 5727.0 741.0 5727.0 699.0C5727.0 659.0 5766.0 626.0 5823.0 626.0ZM5741.0 0.0H5903.0V534.0H5741.0ZM6418.0 -13.0C6667.0 -13.0 6834.0 104.0 6834.0 267.0C6834.0 431.0 6668.0 547.0 6418.0 547.0C6169.0 547.0 6001.0 431.0 6001.0 267.0C6001.0 103.0 6168.0 -13.0 6418.0 -13.0ZM6418.0 83.0C6265.0 83.0 6150.0 160.0 6150.0 267.0C6150.0 375.0 6264.0 450.0 6417.0 450.0C6571.0 450.0 6684.0 375.0 6684.0 267.0C6684.0 160.0 6571.0 83.0 6418.0 83.0Z"/></g>
</svg>
