<svg xmlns="http://www.w3.org/2000/svg" viewBox="0 0 8059 883" role="img" aria-label="V8Fashion">
  <!-- Wordmark V8Fashion. V8=Balgin Expanded Bold, Fashion=Balgin Expanded Regular.
       Vectorizado a paths. Color #262b39. Generado por branding/wordmarks/_generate.py. -->
  <g transform="translate(36.00,821.00) scale(1,-1)" fill="#262b39"><path d="M559.0 -22.0H590.0L1144.0 700.0H835.0L577.0 349.0H571.0L315.0 700.0H4.0ZM1678.0 -14.0C1967.0 -14.0 2151.0 69.0 2151.0 197.0C2151.0 283.0 2087.0 344.0 1938.0 369.0V379.0C2048.0 395.0 2108.0 459.0 2108.0 529.0C2108.0 633.0 1974.0 714.0 1678.0 714.0C1382.0 714.0 1247.0 633.0 1247.0 529.0C1247.0 459.0 1307.0 395.0 1417.0 379.0V369.0C1268.0 344.0 1204.0 283.0 1204.0 197.0C1204.0 69.0 1389.0 -14.0 1678.0 -14.0ZM1678.0 414.0C1587.0 414.0 1534.0 440.0 1534.0 481.0C1534.0 521.0 1587.0 548.0 1678.0 548.0C1768.0 548.0 1821.0 521.0 1821.0 481.0C1821.0 440.0 1768.0 414.0 1678.0 414.0ZM1678.0 161.0C1571.0 161.0 1506.0 192.0 1506.0 238.0C1506.0 284.0 1571.0 317.0 1678.0 317.0C1785.0 317.0 1848.0 284.0 1848.0 238.0C1848.0 192.0 1785.0 161.0 1678.0 161.0ZM2581.0 0.0H2754.0V273.0H3242.0V387.0H2754.0V581.0H3389.0V700.0H2581.0ZM3827.0 -11.0C3976.0 -11.0 4099.0 50.0 4145.0 139.0H4155.0V0.0H4317.0V534.0H4291.0L4197.0 411.0H4191.0C4123.0 495.0 3994.0 547.0 3847.0 547.0C3625.0 547.0 3467.0 427.0 3467.0 267.0C3467.0 101.0 3615.0 -11.0 3827.0 -11.0ZM3902.0 101.0C3754.0 101.0 3634.0 167.0 3634.0 268.0C3634.0 370.0 3755.0 436.0 3902.0 436.0C4048.0 436.0 4163.0 369.0 4163.0 269.0C4163.0 169.0 4047.0 101.0 3902.0 101.0ZM4757.0 -13.0C4947.0 -13.0 5056.0 53.0 5056.0 144.0C5056.0 232.0 4982.0 282.0 4792.0 308.0C4653.0 327.0 4615.0 346.0 4615.0 386.0C4615.0 428.0 4682.0 449.0 4780.0 449.0C4865.0 449.0 4949.0 430.0 5008.0 409.0V509.0C4937.0 531.0 4852.0 547.0 4742.0 547.0C4555.0 547.0 4443.0 480.0 4443.0 394.0C4443.0 307.0 4526.0 256.0 4702.0 231.0C4839.0 212.0 4883.0 194.0 4883.0 151.0C4883.0 110.0 4821.0 84.0 4718.0 84.0C4619.0 84.0 4500.0 117.0 4428.0 158.0L4399.0 61.0C4493.0 14.0 4613.0 -13.0 4757.0 -13.0ZM5150.0 0.0H5312.0V276.0C5312.0 375.0 5408.0 442.0 5527.0 442.0C5650.0 442.0 5750.0 378.0 5750.0 277.0V0.0H5912.0V315.0C5912.0 451.0 5781.0 547.0 5599.0 547.0C5464.0 547.0 5364.0 494.0 5322.0 415.0H5312.0V781.0H5150.0ZM6113.0 626.0C6170.0 626.0 6207.0 659.0 6207.0 699.0C6207.0 741.0 6170.0 774.0 6113.0 774.0C6056.0 774.0 6017.0 741.0 6017.0 699.0C6017.0 659.0 6056.0 626.0 6113.0 626.0ZM6031.0 0.0H6193.0V534.0H6031.0ZM6708.0 -13.0C6957.0 -13.0 7124.0 104.0 7124.0 267.0C7124.0 431.0 6958.0 547.0 6708.0 547.0C6459.0 547.0 6291.0 431.0 6291.0 267.0C6291.0 103.0 6458.0 -13.0 6708.0 -13.0ZM6708.0 83.0C6555.0 83.0 6440.0 160.0 6440.0 267.0C6440.0 375.0 6554.0 450.0 6707.0 450.0C6861.0 450.0 6974.0 375.0 6974.0 267.0C6974.0 160.0 6861.0 83.0 6708.0 83.0ZM7221.0 0.0H7383.0V276.0C7383.0 377.0 7477.0 444.0 7598.0 444.0C7723.0 444.0 7821.0 381.0 7821.0 279.0V0.0H7983.0V302.0C7983.0 445.0 7834.0 547.0 7640.0 547.0C7512.0 547.0 7400.0 498.0 7341.0 423.0H7334.0L7249.0 534.0H7221.0Z"/></g>
</svg>
