<svg xmlns="http://www.w3.org/2000/svg" viewBox="0 0 7833 876" role="img" aria-label="V8Metrics">
  <!-- Wordmark V8Metrics. V8=Balgin Expanded Bold, Metrics=Balgin Expanded Regular.
       Vectorizado a paths. Color #FFFFFF. Generado por branding/wordmarks/_generate.py. -->
  <g transform="translate(36.00,814.00) scale(1,-1)" fill="#FFFFFF"><path d="M559.0 -22.0H590.0L1144.0 700.0H835.0L577.0 349.0H571.0L315.0 700.0H4.0ZM1678.0 -14.0C1967.0 -14.0 2151.0 69.0 2151.0 197.0C2151.0 283.0 2087.0 344.0 1938.0 369.0V379.0C2048.0 395.0 2108.0 459.0 2108.0 529.0C2108.0 633.0 1974.0 714.0 1678.0 714.0C1382.0 714.0 1247.0 633.0 1247.0 529.0C1247.0 459.0 1307.0 395.0 1417.0 379.0V369.0C1268.0 344.0 1204.0 283.0 1204.0 197.0C1204.0 69.0 1389.0 -14.0 1678.0 -14.0ZM1678.0 414.0C1587.0 414.0 1534.0 440.0 1534.0 481.0C1534.0 521.0 1587.0 548.0 1678.0 548.0C1768.0 548.0 1821.0 521.0 1821.0 481.0C1821.0 440.0 1768.0 414.0 1678.0 414.0ZM1678.0 161.0C1571.0 161.0 1506.0 192.0 1506.0 238.0C1506.0 284.0 1571.0 317.0 1678.0 317.0C1785.0 317.0 1848.0 284.0 1848.0 238.0C1848.0 192.0 1785.0 161.0 1678.0 161.0ZM2538.0 0.0H2735.0L2891.0 401.0H2898.0L3175.0 62.0H3202.0L3478.0 401.0H3486.0L3642.0 0.0H3839.0L3558.0 717.0H3530.0L3191.0 290.0H3184.0L2847.0 717.0H2820.0ZM4349.0 -13.0C4468.0 -13.0 4589.0 10.0 4666.0 57.0L4639.0 145.0C4566.0 100.0 4460.0 79.0 4360.0 79.0C4199.0 79.0 4087.0 132.0 4073.0 223.0H4719.0C4722.0 232.0 4725.0 261.0 4725.0 271.0C4725.0 431.0 4553.0 547.0 4327.0 547.0C4096.0 547.0 3922.0 433.0 3922.0 268.0C3922.0 118.0 4073.0 -13.0 4349.0 -13.0ZM4071.0 313.0C4094.0 399.0 4203.0 454.0 4329.0 454.0C4457.0 454.0 4565.0 396.0 4583.0 313.0ZM5230.0 -13.0C5297.0 -13.0 5373.0 1.0 5391.0 4.0L5384.0 109.0C5373.0 105.0 5313.0 93.0 5253.0 93.0C5153.0 93.0 5104.0 124.0 5104.0 203.0V438.0H5395.0V534.0H5104.0V667.0H5065.0L4773.0 501.0V440.0H4942.0V181.0C4942.0 44.0 5047.0 -13.0 5230.0 -13.0ZM5475.0 0.0H5637.0V261.0C5640.0 375.0 5736.0 447.0 5874.0 447.0C5918.0 447.0 5943.0 441.0 5971.0 430.0L5976.0 536.0C5942.0 543.0 5913.0 547.0 5870.0 547.0C5738.0 547.0 5642.0 500.0 5595.0 427.0H5589.0L5503.0 534.0H5475.0ZM6137.0 626.0C6194.0 626.0 6231.0 659.0 6231.0 699.0C6231.0 741.0 6194.0 774.0 6137.0 774.0C6080.0 774.0 6041.0 741.0 6041.0 699.0C6041.0 659.0 6080.0 626.0 6137.0 626.0ZM6055.0 0.0H6217.0V534.0H6055.0ZM6770.0 -13.0C6875.0 -13.0 6985.0 9.0 7056.0 43.0V153.0C6983.0 115.0 6884.0 88.0 6786.0 88.0C6614.0 88.0 6480.0 161.0 6480.0 269.0C6480.0 373.0 6605.0 446.0 6764.0 446.0C6858.0 446.0 6943.0 420.0 6996.0 383.0L7038.0 473.0C6970.0 521.0 6850.0 547.0 6748.0 547.0C6498.0 547.0 6315.0 438.0 6315.0 267.0C6315.0 91.0 6510.0 -13.0 6770.0 -13.0ZM7458.0 -13.0C7648.0 -13.0 7757.0 53.0 7757.0 144.0C7757.0 232.0 7683.0 282.0 7493.0 308.0C7354.0 327.0 7316.0 346.0 7316.0 386.0C7316.0 428.0 7383.0 449.0 7481.0 449.0C7566.0 449.0 7650.0 430.0 7709.0 409.0V509.0C7638.0 531.0 7553.0 547.0 7443.0 547.0C7256.0 547.0 7144.0 480.0 7144.0 394.0C7144.0 307.0 7227.0 256.0 7403.0 231.0C7540.0 212.0 7584.0 194.0 7584.0 151.0C7584.0 110.0 7522.0 84.0 7419.0 84.0C7320.0 84.0 7201.0 117.0 7129.0 158.0L7100.0 61.0C7194.0 14.0 7314.0 -13.0 7458.0 -13.0Z"/></g>
</svg>
