<svg xmlns="http://www.w3.org/2000/svg" viewBox="0 0 8737 1103" role="img" aria-label="V8Dialogue">
  <!-- Wordmark V8Dialogue. V8=Balgin Expanded Bold, Dialogue=Balgin Expanded Regular.
       Vectorizado a paths. Color #262b39. Generado por branding/wordmarks/_generate.py. -->
  <g transform="translate(36.00,821.00) scale(1,-1)" fill="#262b39"><path d="M559.0 -22.0H590.0L1144.0 700.0H835.0L577.0 349.0H571.0L315.0 700.0H4.0ZM1678.0 -14.0C1967.0 -14.0 2151.0 69.0 2151.0 197.0C2151.0 283.0 2087.0 344.0 1938.0 369.0V379.0C2048.0 395.0 2108.0 459.0 2108.0 529.0C2108.0 633.0 1974.0 714.0 1678.0 714.0C1382.0 714.0 1247.0 633.0 1247.0 529.0C1247.0 459.0 1307.0 395.0 1417.0 379.0V369.0C1268.0 344.0 1204.0 283.0 1204.0 197.0C1204.0 69.0 1389.0 -14.0 1678.0 -14.0ZM1678.0 414.0C1587.0 414.0 1534.0 440.0 1534.0 481.0C1534.0 521.0 1587.0 548.0 1678.0 548.0C1768.0 548.0 1821.0 521.0 1821.0 481.0C1821.0 440.0 1768.0 414.0 1678.0 414.0ZM1678.0 161.0C1571.0 161.0 1506.0 192.0 1506.0 238.0C1506.0 284.0 1571.0 317.0 1678.0 317.0C1785.0 317.0 1848.0 284.0 1848.0 238.0C1848.0 192.0 1785.0 161.0 1678.0 161.0ZM2581.0 0.0H3043.0C3335.0 0.0 3527.0 146.0 3527.0 350.0C3527.0 554.0 3334.0 700.0 3043.0 700.0H2581.0ZM2754.0 120.0V581.0H3049.0C3216.0 581.0 3351.0 485.0 3351.0 350.0C3351.0 216.0 3216.0 120.0 3049.0 120.0ZM3728.0 626.0C3785.0 626.0 3822.0 659.0 3822.0 699.0C3822.0 741.0 3785.0 774.0 3728.0 774.0C3671.0 774.0 3632.0 741.0 3632.0 699.0C3632.0 659.0 3671.0 626.0 3728.0 626.0ZM3646.0 0.0H3808.0V534.0H3646.0ZM4268.0 -11.0C4417.0 -11.0 4540.0 50.0 4586.0 139.0H4596.0V0.0H4758.0V534.0H4732.0L4638.0 411.0H4632.0C4564.0 495.0 4435.0 547.0 4288.0 547.0C4066.0 547.0 3908.0 427.0 3908.0 267.0C3908.0 101.0 4056.0 -11.0 4268.0 -11.0ZM4343.0 101.0C4195.0 101.0 4075.0 167.0 4075.0 268.0C4075.0 370.0 4196.0 436.0 4343.0 436.0C4489.0 436.0 4604.0 369.0 4604.0 269.0C4604.0 169.0 4488.0 101.0 4343.0 101.0ZM4879.0 0.0H5041.0V781.0H4879.0ZM5556.0 -13.0C5805.0 -13.0 5972.0 104.0 5972.0 267.0C5972.0 431.0 5806.0 547.0 5556.0 547.0C5307.0 547.0 5139.0 431.0 5139.0 267.0C5139.0 103.0 5306.0 -13.0 5556.0 -13.0ZM5556.0 83.0C5403.0 83.0 5288.0 160.0 5288.0 267.0C5288.0 375.0 5402.0 450.0 5555.0 450.0C5709.0 450.0 5822.0 375.0 5822.0 267.0C5822.0 160.0 5709.0 83.0 5556.0 83.0ZM6429.0 -242.0C6706.0 -242.0 6898.0 -130.0 6898.0 37.0V534.0H6870.0L6775.0 413.0H6768.0C6700.0 495.0 6573.0 547.0 6428.0 547.0C6204.0 547.0 6046.0 431.0 6046.0 270.0C6046.0 108.0 6195.0 -5.0 6406.0 -5.0C6556.0 -5.0 6681.0 54.0 6726.0 141.0H6736.0V68.0C6736.0 -59.0 6590.0 -134.0 6413.0 -134.0C6313.0 -134.0 6201.0 -121.0 6111.0 -87.0L6079.0 -194.0C6168.0 -225.0 6321.0 -242.0 6429.0 -242.0ZM6481.0 101.0C6334.0 101.0 6214.0 167.0 6214.0 268.0C6214.0 368.0 6335.0 436.0 6482.0 436.0C6628.0 436.0 6742.0 369.0 6742.0 269.0C6742.0 169.0 6627.0 101.0 6481.0 101.0ZM7314.0 -13.0C7448.0 -13.0 7548.0 40.0 7593.0 117.0H7601.0L7602.0 0.0H7763.0V534.0H7601.0V260.0C7601.0 159.0 7506.0 91.0 7386.0 91.0C7257.0 91.0 7162.0 151.0 7162.0 257.0V534.0H7001.0V219.0C7001.0 79.0 7127.0 -13.0 7314.0 -13.0ZM8285.0 -13.0C8404.0 -13.0 8525.0 10.0 8602.0 57.0L8575.0 145.0C8502.0 100.0 8396.0 79.0 8296.0 79.0C8135.0 79.0 8023.0 132.0 8009.0 223.0H8655.0C8658.0 232.0 8661.0 261.0 8661.0 271.0C8661.0 431.0 8489.0 547.0 8263.0 547.0C8032.0 547.0 7858.0 433.0 7858.0 268.0C7858.0 118.0 8009.0 -13.0 8285.0 -13.0ZM8007.0 313.0C8030.0 399.0 8139.0 454.0 8265.0 454.0C8393.0 454.0 8501.0 396.0 8519.0 313.0Z"/></g>
</svg>
