<svg xmlns="http://www.w3.org/2000/svg" viewBox="0 0 7212 883" role="img" aria-label="V8Dealer">
  <!-- Wordmark V8Dealer. V8=Balgin Expanded Bold, Dealer=Balgin Expanded Regular.
       Vectorizado a paths. Color #262b39. Generado por branding/wordmarks/_generate.py. -->
  <g transform="translate(36.00,821.00) scale(1,-1)" fill="#262b39"><path d="M559.0 -22.0H590.0L1144.0 700.0H835.0L577.0 349.0H571.0L315.0 700.0H4.0ZM1678.0 -14.0C1967.0 -14.0 2151.0 69.0 2151.0 197.0C2151.0 283.0 2087.0 344.0 1938.0 369.0V379.0C2048.0 395.0 2108.0 459.0 2108.0 529.0C2108.0 633.0 1974.0 714.0 1678.0 714.0C1382.0 714.0 1247.0 633.0 1247.0 529.0C1247.0 459.0 1307.0 395.0 1417.0 379.0V369.0C1268.0 344.0 1204.0 283.0 1204.0 197.0C1204.0 69.0 1389.0 -14.0 1678.0 -14.0ZM1678.0 414.0C1587.0 414.0 1534.0 440.0 1534.0 481.0C1534.0 521.0 1587.0 548.0 1678.0 548.0C1768.0 548.0 1821.0 521.0 1821.0 481.0C1821.0 440.0 1768.0 414.0 1678.0 414.0ZM1678.0 161.0C1571.0 161.0 1506.0 192.0 1506.0 238.0C1506.0 284.0 1571.0 317.0 1678.0 317.0C1785.0 317.0 1848.0 284.0 1848.0 238.0C1848.0 192.0 1785.0 161.0 1678.0 161.0ZM2581.0 0.0H3043.0C3335.0 0.0 3527.0 146.0 3527.0 350.0C3527.0 554.0 3334.0 700.0 3043.0 700.0H2581.0ZM2754.0 120.0V581.0H3049.0C3216.0 581.0 3351.0 485.0 3351.0 350.0C3351.0 216.0 3216.0 120.0 3049.0 120.0ZM4050.0 -13.0C4169.0 -13.0 4290.0 10.0 4367.0 57.0L4340.0 145.0C4267.0 100.0 4161.0 79.0 4061.0 79.0C3900.0 79.0 3788.0 132.0 3774.0 223.0H4420.0C4423.0 232.0 4426.0 261.0 4426.0 271.0C4426.0 431.0 4254.0 547.0 4028.0 547.0C3797.0 547.0 3623.0 433.0 3623.0 268.0C3623.0 118.0 3774.0 -13.0 4050.0 -13.0ZM3772.0 313.0C3795.0 399.0 3904.0 454.0 4030.0 454.0C4158.0 454.0 4266.0 396.0 4284.0 313.0ZM4863.0 -11.0C5012.0 -11.0 5135.0 50.0 5181.0 139.0H5191.0V0.0H5353.0V534.0H5327.0L5233.0 411.0H5227.0C5159.0 495.0 5030.0 547.0 4883.0 547.0C4661.0 547.0 4503.0 427.0 4503.0 267.0C4503.0 101.0 4651.0 -11.0 4863.0 -11.0ZM4938.0 101.0C4790.0 101.0 4670.0 167.0 4670.0 268.0C4670.0 370.0 4791.0 436.0 4938.0 436.0C5084.0 436.0 5199.0 369.0 5199.0 269.0C5199.0 169.0 5083.0 101.0 4938.0 101.0ZM5474.0 0.0H5636.0V781.0H5474.0ZM6161.0 -13.0C6280.0 -13.0 6401.0 10.0 6478.0 57.0L6451.0 145.0C6378.0 100.0 6272.0 79.0 6172.0 79.0C6011.0 79.0 5899.0 132.0 5885.0 223.0H6531.0C6534.0 232.0 6537.0 261.0 6537.0 271.0C6537.0 431.0 6365.0 547.0 6139.0 547.0C5908.0 547.0 5734.0 433.0 5734.0 268.0C5734.0 118.0 5885.0 -13.0 6161.0 -13.0ZM5883.0 313.0C5906.0 399.0 6015.0 454.0 6141.0 454.0C6269.0 454.0 6377.0 396.0 6395.0 313.0ZM6635.0 0.0H6797.0V261.0C6800.0 375.0 6896.0 447.0 7034.0 447.0C7078.0 447.0 7103.0 441.0 7131.0 430.0L7136.0 536.0C7102.0 543.0 7073.0 547.0 7030.0 547.0C6898.0 547.0 6802.0 500.0 6755.0 427.0H6749.0L6663.0 534.0H6635.0Z"/></g>
</svg>
